<svg width="129" height="60" viewBox="0 0 129 60" fill="none" xmlns="http://www.w3.org/2000/svg">
<path d="M23.54 25.2L18.2 4.08L12.86 25.2H23.54ZM35.96 40.92V45H24.26V40.92H27.5L24.5 28.98H11.9L8.9 40.92H12.2V45H0.5V40.92H4.28L14.72 -3.57628e-06H21.8L32.06 40.92H35.96ZM49.6775 51.84C49.6775 53.52 49.2575 54.8 48.4175 55.68C47.6175 56.56 46.1975 57 44.1575 57H36.8375V52.86H44.7575V19.08H40.9775V15H49.6775V51.84ZM46.6775 3.96C47.5175 3.96 48.2175 4.28 48.7775 4.92C49.3775 5.52 49.6775 6.26 49.6775 7.14C49.6775 7.98 49.3775 8.7 48.7775 9.3C48.2175 9.86 47.4975 10.14 46.6175 10.14C45.7775 10.14 45.0575 9.86 44.4575 9.3C43.8975 8.7 43.6175 7.98 43.6175 7.14C43.6175 6.26 43.9175 5.52 44.5175 4.92C45.1175 4.28 45.8375 3.96 46.6775 3.96ZM73.8378 15C76.9578 15 78.5178 16.54 78.5178 19.62V24.96H73.6578V19.14L64.2978 25.08V40.92H67.2378V45H55.6578V40.92H59.4378V19.02H55.6578V14.94H64.2978V20.22L71.6778 15.6C72.3178 15.2 73.0378 15 73.8378 15ZM92.6141 40.92H96.5141V45H83.9141V40.92H87.6941V19.08H83.9141V15H92.6141V40.92ZM90.1541 3.96C90.9941 3.96 91.6941 4.28 92.2541 4.92C92.8541 5.52 93.1541 6.26 93.1541 7.14C93.1541 7.98 92.8541 8.7 92.2541 9.3C91.6941 9.86 90.9741 10.14 90.0941 10.14C89.2541 10.14 88.5341 9.86 87.9341 9.3C87.3741 8.7 87.0941 7.98 87.0941 7.14C87.0941 6.26 87.3941 5.52 87.9941 4.92C88.5941 4.28 89.3141 3.96 90.1541 3.96ZM106.702 41.52L119.422 33.48V19.08H106.702V41.52ZM115.642 55.92H119.422V38.34L109.222 44.76C108.342 45.32 107.302 45.6 106.102 45.6C104.942 45.6 103.942 45.16 103.102 44.28C102.302 43.4 101.902 42.12 101.902 40.44V20.28C101.902 18.64 102.162 17.48 102.682 16.8C103.642 15.6 105.102 15 107.062 15H128.122V19.08H124.342V55.92H128.122V60H115.642V55.92Z" fill="black"/>
</svg>
