<svg width="160" height="160" viewBox="0 0 160 160" fill="none" xmlns="http://www.w3.org/2000/svg">
<circle cx="80" cy="80" r="80" fill="white"/>
<path d="M82.0078 66.3291V131.329" stroke="#0E770B" stroke-width="6" stroke-linecap="round"/>
<path d="M124.311 42.4934C125.691 41.576 126.066 39.7139 125.149 38.3341C124.231 36.9544 122.369 36.5796 120.989 37.4969L124.311 42.4934ZM120.989 37.4969L78.4541 65.7768L81.776 70.7733L124.311 42.4934L120.989 37.4969Z" fill="#0E770B"/>
<path d="M97.11 29.9343C97.626 28.3599 96.7678 26.6652 95.1934 26.1493C93.6189 25.6334 91.9243 26.4915 91.4083 28.066L97.11 29.9343ZM84.303 69.0172L97.11 29.9343L91.4083 28.066L78.6013 67.1488L84.303 69.0172Z" fill="#0E770B"/>
<path d="M63.4412 34.2563C62.4782 32.908 60.6045 32.5958 59.2563 33.5588C57.908 34.5218 57.5958 36.3955 58.5588 37.7437L63.4412 34.2563ZM83.4412 62.2563L63.4412 34.2563L58.5588 37.7437L78.5588 65.7437L83.4412 62.2563Z" fill="#0E770B"/>
<path d="M39.5124 38.4657C38.0816 37.6304 36.2444 38.1132 35.4091 39.5441C34.5739 40.975 35.0567 42.8121 36.4876 43.6474L39.5124 38.4657ZM83.6247 64.2168L39.5124 38.4657L36.4876 43.6474L80.5999 69.3985L83.6247 64.2168Z" fill="#0E770B"/>
</svg>
